<svg xmlns="http://www.w3.org/2000/svg" viewBox="0 0 600 840" role="img" aria-labelledby="title description"><title id="title">Moss Turtle</title><desc id="description">Original illustration of a green turtle carrying a tiny forest on its shell.</desc><defs><linearGradient id="bg" x2="1" y2="1"><stop stop-color="#153e39"/><stop offset="1" stop-color="#7dae72"/></linearGradient></defs><rect width="600" height="840" rx="34" fill="url(#bg)"/><circle cx="485" cy="157" r="83" fill="#e4efad" opacity=".7"/><path d="M0 670Q130 617 280 670T600 659V840H0Z" fill="#315638"/><path d="M126 540Q121 302 300 301T474 540Q445 615 300 633T126 540Z" fill="#355846" stroke="#183a31" stroke-width="15"/><path d="M152 420Q253 389 298 336Q337 389 447 425M136 517Q242 494 300 442Q366 496 464 512M300 442v180" fill="none" stroke="#91bb70" stroke-width="15"/><path d="M205 302l-16-63 58 48m110 4 62-66-8 92" fill="#75a772"/><path d="M205 330q-30-70 1-103 55 8 53 85m77 2q-4-89 60-102 28 46 0 116" fill="#7dc374" stroke="#315638" stroke-width="8"/><path d="M365 598q92-63 136-5l27 45q-31 53-111 23l-63-30M178 587q-93-21-104 46l-6 43q62 31 114-32m48-15-42 82m197-80 57 79" fill="#92bd79" stroke="#284b38" stroke-width="12"/><circle cx="473" cy="611" r="8" fill="#1a4036"/><path d="M490 632q-19 17-40 4" fill="none" stroke="#1a4036" stroke-width="6"/><circle cx="90" cy="141" r="5" fill="#def5ae"/><circle cx="123" cy="201" r="8" fill="#def5ae"/><circle cx="63" cy="281" r="4" fill="#def5ae"/><text x="300" y="789" text-anchor="middle" fill="#f0fbdc" font-family="sans-serif" font-size="32" letter-spacing="6">MOSS TURTLE</text></svg>
